<svg aria-roledescription="flowchart-v2" role="graphics-document document" viewBox="-8 -8 1103 213" style="max-width: 1103px;" xmlns="http://www.w3.org/2000/svg" width="1103" id="svg" xmlns:xlink="http://www.w3.org/1999/xlink" height="213"><style>#svg{font-family:"trebuchet ms",verdana,arial,sans-serif;font-size:16px;fill:#333;}#svg .error-icon{fill:#552222;}#svg .error-text{fill:#552222;stroke:#552222;}#svg .edge-thickness-normal{stroke-width:2px;}#svg .edge-thickness-thick{stroke-width:3.5px;}#svg .edge-pattern-solid{stroke-dasharray:0;}#svg .edge-pattern-dashed{stroke-dasharray:3;}#svg .edge-pattern-dotted{stroke-dasharray:2;}#svg .marker{fill:#333333;stroke:#333333;}#svg .marker.cross{stroke:#333333;}#svg svg{font-family:"trebuchet ms",verdana,arial,sans-serif;font-size:16px;}#svg .label{font-family:"trebuchet ms",verdana,arial,sans-serif;color:#333;}#svg .cluster-label text{fill:#333;}#svg .cluster-label span,#svg p{color:#333;}#svg .label text,#svg span,#svg p{fill:#333;color:#333;}#svg .node rect,#svg .node circle,#svg .node ellipse,#svg .node polygon,#svg .node path{fill:#ECECFF;stroke:#9370DB;stroke-width:1px;}#svg .flowchart-label text{text-anchor:middle;}#svg .node .katex path{fill:#000;stroke:#000;stroke-width:1px;}#svg .node .label{text-align:center;}#svg .node.clickable{cursor:pointer;}#svg .arrowheadPath{fill:#333333;}#svg .edgePath .path{stroke:#333333;stroke-width:2.0px;}#svg .flowchart-link{stroke:#333333;fill:none;}#svg .edgeLabel{background-color:#e8e8e8;text-align:center;}#svg .edgeLabel rect{opacity:0.5;background-color:#e8e8e8;fill:#e8e8e8;}#svg .labelBkg{background-color:rgba(232, 232, 232, 0.5);}#svg .cluster rect{fill:#ffffde;stroke:#aaaa33;stroke-width:1px;}#svg .cluster text{fill:#333;}#svg .cluster span,#svg p{color:#333;}#svg div.mermaidTooltip{position:absolute;text-align:center;max-width:200px;padding:2px;font-family:"trebuchet ms",verdana,arial,sans-serif;font-size:12px;background:hsl(80, 100%, 96.2745098039%);border:1px solid #aaaa33;border-radius:2px;pointer-events:none;z-index:100;}#svg .flowchartTitleText{text-anchor:middle;font-size:18px;fill:#333;}#svg .today{display:none;}#svg .label foreignObject{overflow:visible;}#svg :root{--mermaid-font-family:"trebuchet ms",verdana,arial,sans-serif;}</style><g><marker orient="auto" markerHeight="12" markerWidth="12" markerUnits="userSpaceOnUse" refY="5" refX="6" viewBox="0 0 10 10" class="marker flowchart" id="svg_flowchart-pointEnd"><path style="stroke-width: 1; stroke-dasharray: 1, 0;" class="arrowMarkerPath" d="M 0 0 L 10 5 L 0 10 z"></path></marker><marker orient="auto" markerHeight="12" markerWidth="12" markerUnits="userSpaceOnUse" refY="5" refX="4.5" viewBox="0 0 10 10" class="marker flowchart" id="svg_flowchart-pointStart"><path style="stroke-width: 1; stroke-dasharray: 1, 0;" class="arrowMarkerPath" d="M 0 5 L 10 10 L 10 0 z"></path></marker><marker orient="auto" markerHeight="11" markerWidth="11" markerUnits="userSpaceOnUse" refY="5" refX="11" viewBox="0 0 10 10" class="marker flowchart" id="svg_flowchart-circleEnd"><circle style="stroke-width: 1; stroke-dasharray: 1, 0;" class="arrowMarkerPath" r="5" cy="5" cx="5"></circle></marker><marker orient="auto" markerHeight="11" markerWidth="11" markerUnits="userSpaceOnUse" refY="5" refX="-1" viewBox="0 0 10 10" class="marker flowchart" id="svg_flowchart-circleStart"><circle style="stroke-width: 1; stroke-dasharray: 1, 0;" class="arrowMarkerPath" r="5" cy="5" cx="5"></circle></marker><marker orient="auto" markerHeight="11" markerWidth="11" markerUnits="userSpaceOnUse" refY="5.2" refX="12" viewBox="0 0 11 11" class="marker cross flowchart" id="svg_flowchart-crossEnd"><path style="stroke-width: 2; stroke-dasharray: 1, 0;" class="arrowMarkerPath" d="M 1,1 l 9,9 M 10,1 l -9,9"></path></marker><marker orient="auto" markerHeight="11" markerWidth="11" markerUnits="userSpaceOnUse" refY="5.2" refX="-1" viewBox="0 0 11 11" class="marker cross flowchart" id="svg_flowchart-crossStart"><path style="stroke-width: 2; stroke-dasharray: 1, 0;" class="arrowMarkerPath" d="M 1,1 l 9,9 M 10,1 l -9,9"></path></marker><g class="root"><g class="clusters"></g><g class="edgePaths"><path marker-end="url(#svg_flowchart-pointEnd)" style="fill:none;" class="edge-thickness-normal edge-pattern-solid flowchart-link LS-A LE-C" id="L-A-C-0" d="M137.5,61.75L142.75,61.75C148,61.75,158.5,61.75,170.846,63.872C183.191,65.994,197.383,70.238,204.478,72.36L211.574,74.482"></path><path marker-end="url(#svg_flowchart-pointEnd)" style="fill:none;" class="edge-thickness-normal edge-pattern-solid flowchart-link LS-B LE-C" id="L-B-C-0" d="M144,147.75L148.167,147.75C152.333,147.75,160.667,147.75,176.06,141.868C191.453,135.987,213.905,124.223,225.132,118.341L236.358,112.46"></path><path marker-end="url(#svg_flowchart-pointEnd)" style="fill:none;" class="edge-thickness-normal edge-pattern-solid flowchart-link LS-C LE-D" id="L-C-D-0" d="M353,93L357.167,93C361.333,93,369.667,93,377.117,93C384.567,93,391.133,93,394.417,93L397.7,93"></path><path marker-end="url(#svg_flowchart-pointEnd)" style="fill:none;" class="edge-thickness-normal edge-pattern-solid flowchart-link LS-D LE-E" id="L-D-E-0" d="M474,93L478.167,93C482.333,93,490.667,93,498.2,93.066C505.734,93.132,512.467,93.264,515.834,93.33L519.201,93.396"></path><path marker-end="url(#svg_flowchart-pointEnd)" style="fill:none;" class="edge-thickness-normal edge-pattern-solid flowchart-link LS-E LE-F" id="L-E-F-0" d="M681.438,64.438L693.615,58.781C705.792,53.125,730.146,41.813,760.323,36.156C790.5,30.5,826.5,30.5,859.25,30.5C892,30.5,921.5,30.5,945.765,39.276C970.03,48.052,989.059,65.604,998.574,74.381L1008.089,83.157"></path><path marker-end="url(#svg_flowchart-pointEnd)" style="fill:none;" class="edge-thickness-normal edge-pattern-solid flowchart-link LS-E LE-G" id="L-E-G-0" d="M674.715,129.285L688.012,137.571C701.31,145.857,727.905,162.428,747.736,170.714C767.567,179,780.633,179,787.167,179L793.7,179"></path><path marker-end="url(#svg_flowchart-pointEnd)" style="fill:none;" class="edge-thickness-normal edge-pattern-solid flowchart-link LS-G LE-F" id="L-G-F-0" d="M926,179L930.167,179C934.333,179,942.667,179,956.348,170.224C970.03,161.448,989.059,143.896,998.574,135.119L1008.089,126.343"></path><path marker-end="url(#svg_flowchart-pointEnd)" style="fill:none;" class="edge-thickness-normal edge-pattern-solid flowchart-link LS-E LE-H" id="L-E-H-0" d="M710.5,93.5L717.833,93.417C725.167,93.333,739.833,93.167,754.617,93.083C769.4,93,784.3,93,791.75,93L799.2,93"></path></g><g class="edgeLabels"><g class="edgeLabel"><g transform="translate(0, 0)" class="label"><foreignObject height="0" width="0"><div style="display: inline-block; white-space: nowrap;" xmlns="http://www.w3.org/1999/xhtml"><span class="edgeLabel"></span></div></foreignObject></g></g><g class="edgeLabel"><g transform="translate(0, 0)" class="label"><foreignObject height="0" width="0"><div style="display: inline-block; white-space: nowrap;" xmlns="http://www.w3.org/1999/xhtml"><span class="edgeLabel"></span></div></foreignObject></g></g><g class="edgeLabel"><g transform="translate(0, 0)" class="label"><foreignObject height="0" width="0"><div style="display: inline-block; white-space: nowrap;" xmlns="http://www.w3.org/1999/xhtml"><span class="edgeLabel"></span></div></foreignObject></g></g><g class="edgeLabel"><g transform="translate(0, 0)" class="label"><foreignObject height="0" width="0"><div style="display: inline-block; white-space: nowrap;" xmlns="http://www.w3.org/1999/xhtml"><span class="edgeLabel"></span></div></foreignObject></g></g><g transform="translate(862.5, 30.5)" class="edgeLabel"><g transform="translate(-20.5, -9.5)" class="label"><foreignObject height="19" width="41"><div style="display: inline-block; white-space: nowrap;" xmlns="http://www.w3.org/1999/xhtml"><span class="edgeLabel">allow</span></div></foreignObject></g></g><g transform="translate(754.5, 179)" class="edgeLabel"><g transform="translate(-13.5, -9.5)" class="label"><foreignObject height="19" width="27"><div style="display: inline-block; white-space: nowrap;" xmlns="http://www.w3.org/1999/xhtml"><span class="edgeLabel">ask</span></div></foreignObject></g></g><g class="edgeLabel"><g transform="translate(0, 0)" class="label"><foreignObject height="0" width="0"><div style="display: inline-block; white-space: nowrap;" xmlns="http://www.w3.org/1999/xhtml"><span class="edgeLabel"></span></div></foreignObject></g></g><g transform="translate(754.5, 93)" class="edgeLabel"><g transform="translate(-19.5, -9.5)" class="label"><foreignObject height="19" width="39"><div style="display: inline-block; white-space: nowrap;" xmlns="http://www.w3.org/1999/xhtml"><span class="edgeLabel">deny</span></div></foreignObject></g></g></g><g class="nodes"><g transform="translate(72, 61.75)" data-id="A" data-node="true" id="flowchart-A-0" class="node default default flowchart-label"><rect height="36" width="131" y="-18" x="-65.5" ry="0" rx="0" style="" class="basic label-container"></rect><g transform="translate(-58, -10.5)" style="" class="label"><rect></rect><foreignObject height="21" width="116"><div style="display: inline-block; white-space: nowrap;" xmlns="http://www.w3.org/1999/xhtml"><span class="nodeLabel">Agent 权限规则</span></div></foreignObject></g></g><g transform="translate(273.5, 93)" data-id="C" data-node="true" id="flowchart-C-1" class="node default default flowchart-label"><rect height="34" width="159" y="-17" x="-79.5" ry="0" rx="0" style="" class="basic label-container"></rect><g transform="translate(-72, -9.5)" style="" class="label"><rect></rect><foreignObject height="19" width="144"><div style="display: inline-block; white-space: nowrap;" xmlns="http://www.w3.org/1999/xhtml"><span class="nodeLabel">Permission.merge</span></div></foreignObject></g></g><g transform="translate(72, 147.75)" data-id="B" data-node="true" id="flowchart-B-2" class="node default default flowchart-label"><rect height="36" width="144" y="-18" x="-72" ry="0" rx="0" style="" class="basic label-container"></rect><g transform="translate(-64.5, -10.5)" style="" class="label"><rect></rect><foreignObject height="21" width="129"><div style="display: inline-block; white-space: nowrap;" xmlns="http://www.w3.org/1999/xhtml"><span class="nodeLabel">Session 临时权限</span></div></foreignObject></g></g><g transform="translate(438.5, 93)" data-id="D" data-node="true" id="flowchart-D-5" class="node default default flowchart-label"><rect height="34" width="71" y="-17" x="-35.5" ry="0" rx="0" style="" class="basic label-container"></rect><g transform="translate(-28, -9.5)" style="" class="label"><rect></rect><foreignObject height="19" width="56"><div style="display: inline-block; white-space: nowrap;" xmlns="http://www.w3.org/1999/xhtml"><span class="nodeLabel">ctx.ask</span></div></foreignObject></g></g><g transform="translate(617, 93)" data-id="E" data-node="true" id="flowchart-E-7" class="node default default flowchart-label"><polygon style="" transform="translate(-93,93)" class="label-container" points="93,0 186,-93 93,-186 0,-93"></polygon><g transform="translate(-68.5, -9.5)" style="" class="label"><rect></rect><foreignObject height="19" width="137"><div style="display: inline-block; white-space: nowrap;" xmlns="http://www.w3.org/1999/xhtml"><span class="nodeLabel">allow / ask / deny</span></div></foreignObject></g></g><g transform="translate(1031.5, 104.75)" data-id="F" data-node="true" id="flowchart-F-9" class="node default default flowchart-label"><rect height="36" width="111" y="-18" x="-55.5" ry="0" rx="0" style="" class="basic label-container"></rect><g transform="translate(-48, -10.5)" style="" class="label"><rect></rect><foreignObject height="21" width="96"><div style="display: inline-block; white-space: nowrap;" xmlns="http://www.w3.org/1999/xhtml"><span class="nodeLabel">继续执行工具</span></div></foreignObject></g></g><g transform="translate(862.5, 179)" data-id="G" data-node="true" id="flowchart-G-11" class="node default default flowchart-label"><rect height="36" width="127" y="-18" x="-63.5" ry="0" rx="0" style="" class="basic label-container"></rect><g transform="translate(-56, -10.5)" style="" class="label"><rect></rect><foreignObject height="21" width="112"><div style="display: inline-block; white-space: nowrap;" xmlns="http://www.w3.org/1999/xhtml"><span class="nodeLabel">向用户请求批准</span></div></foreignObject></g></g><g transform="translate(862.5, 93)" data-id="H" data-node="true" id="flowchart-H-15" class="node default default flowchart-label"><rect height="36" width="116" y="-18" x="-58" ry="0" rx="0" style="" class="basic label-container"></rect><g transform="translate(-50.5, -10.5)" style="" class="label"><rect></rect><foreignObject height="21" width="101"><div style="display: inline-block; white-space: nowrap;" xmlns="http://www.w3.org/1999/xhtml"><span class="nodeLabel">工具失败/停止</span></div></foreignObject></g></g></g></g></g></svg>