<svg aria-roledescription="flowchart-v2" role="graphics-document document" viewBox="-8 -8 1266.25 1526.7305908203125" style="max-width: 1266.25px;" xmlns="http://www.w3.org/2000/svg" width="1266.25" id="svg" xmlns:xlink="http://www.w3.org/1999/xlink" height="1526.7305908203125"><style>#svg{font-family:"trebuchet ms",verdana,arial,sans-serif;font-size:16px;fill:#333;}#svg .error-icon{fill:#552222;}#svg .error-text{fill:#552222;stroke:#552222;}#svg .edge-thickness-normal{stroke-width:2px;}#svg .edge-thickness-thick{stroke-width:3.5px;}#svg .edge-pattern-solid{stroke-dasharray:0;}#svg .edge-pattern-dashed{stroke-dasharray:3;}#svg .edge-pattern-dotted{stroke-dasharray:2;}#svg .marker{fill:#333333;stroke:#333333;}#svg .marker.cross{stroke:#333333;}#svg svg{font-family:"trebuchet ms",verdana,arial,sans-serif;font-size:16px;}#svg .label{font-family:"trebuchet ms",verdana,arial,sans-serif;color:#333;}#svg .cluster-label text{fill:#333;}#svg .cluster-label span,#svg p{color:#333;}#svg .label text,#svg span,#svg p{fill:#333;color:#333;}#svg .node rect,#svg .node circle,#svg .node ellipse,#svg .node polygon,#svg .node path{fill:#ECECFF;stroke:#9370DB;stroke-width:1px;}#svg .flowchart-label text{text-anchor:middle;}#svg .node .katex path{fill:#000;stroke:#000;stroke-width:1px;}#svg .node .label{text-align:center;}#svg .node.clickable{cursor:pointer;}#svg .arrowheadPath{fill:#333333;}#svg .edgePath .path{stroke:#333333;stroke-width:2.0px;}#svg .flowchart-link{stroke:#333333;fill:none;}#svg .edgeLabel{background-color:#e8e8e8;text-align:center;}#svg .edgeLabel rect{opacity:0.5;background-color:#e8e8e8;fill:#e8e8e8;}#svg .labelBkg{background-color:rgba(232, 232, 232, 0.5);}#svg .cluster rect{fill:#ffffde;stroke:#aaaa33;stroke-width:1px;}#svg .cluster text{fill:#333;}#svg .cluster span,#svg p{color:#333;}#svg div.mermaidTooltip{position:absolute;text-align:center;max-width:200px;padding:2px;font-family:"trebuchet ms",verdana,arial,sans-serif;font-size:12px;background:hsl(80, 100%, 96.2745098039%);border:1px solid #aaaa33;border-radius:2px;pointer-events:none;z-index:100;}#svg .flowchartTitleText{text-anchor:middle;font-size:18px;fill:#333;}#svg .today{display:none;}#svg .label foreignObject{overflow:visible;}#svg :root{--mermaid-font-family:"trebuchet ms",verdana,arial,sans-serif;}</style><g><marker orient="auto" markerHeight="12" markerWidth="12" markerUnits="userSpaceOnUse" refY="5" refX="6" viewBox="0 0 10 10" class="marker flowchart" id="svg_flowchart-pointEnd"><path style="stroke-width: 1; stroke-dasharray: 1, 0;" class="arrowMarkerPath" d="M 0 0 L 10 5 L 0 10 z"></path></marker><marker orient="auto" markerHeight="12" markerWidth="12" markerUnits="userSpaceOnUse" refY="5" refX="4.5" viewBox="0 0 10 10" class="marker flowchart" id="svg_flowchart-pointStart"><path style="stroke-width: 1; stroke-dasharray: 1, 0;" class="arrowMarkerPath" d="M 0 5 L 10 10 L 10 0 z"></path></marker><marker orient="auto" markerHeight="11" markerWidth="11" markerUnits="userSpaceOnUse" refY="5" refX="11" viewBox="0 0 10 10" class="marker flowchart" id="svg_flowchart-circleEnd"><circle style="stroke-width: 1; stroke-dasharray: 1, 0;" class="arrowMarkerPath" r="5" cy="5" cx="5"></circle></marker><marker orient="auto" markerHeight="11" markerWidth="11" markerUnits="userSpaceOnUse" refY="5" refX="-1" viewBox="0 0 10 10" class="marker flowchart" id="svg_flowchart-circleStart"><circle style="stroke-width: 1; stroke-dasharray: 1, 0;" class="arrowMarkerPath" r="5" cy="5" cx="5"></circle></marker><marker orient="auto" markerHeight="11" markerWidth="11" markerUnits="userSpaceOnUse" refY="5.2" refX="12" viewBox="0 0 11 11" class="marker cross flowchart" id="svg_flowchart-crossEnd"><path style="stroke-width: 2; stroke-dasharray: 1, 0;" class="arrowMarkerPath" d="M 1,1 l 9,9 M 10,1 l -9,9"></path></marker><marker orient="auto" markerHeight="11" markerWidth="11" markerUnits="userSpaceOnUse" refY="5.2" refX="-1" viewBox="0 0 11 11" class="marker cross flowchart" id="svg_flowchart-crossStart"><path style="stroke-width: 2; stroke-dasharray: 1, 0;" class="arrowMarkerPath" d="M 1,1 l 9,9 M 10,1 l -9,9"></path></marker><g class="root"><g class="clusters"></g><g class="edgePaths"><path marker-end="url(#svg_flowchart-pointEnd)" style="fill:none;" class="edge-thickness-normal edge-pattern-solid flowchart-link LS-User LE-Create" id="L-User-Create-0" d="M945.25,36L945.25,40.167C945.25,44.333,945.25,52.667,945.25,60.117C945.25,67.567,945.25,74.133,945.25,77.417L945.25,80.7"></path><path marker-end="url(#svg_flowchart-pointEnd)" style="fill:none;" class="edge-thickness-normal edge-pattern-solid flowchart-link LS-Create LE-Store" id="L-Create-Store-0" d="M945.25,141L945.25,145.167C945.25,149.333,945.25,157.667,945.25,165.117C945.25,172.567,945.25,179.133,945.25,182.417L945.25,185.7"></path><path marker-end="url(#svg_flowchart-pointEnd)" style="fill:none;" class="edge-thickness-normal edge-pattern-solid flowchart-link LS-Model LE-Processor" id="L-Model-Processor-0" d="M406.75,832.975L406.75,837.142C406.75,841.309,406.75,849.642,406.75,857.092C406.75,864.542,406.75,871.109,406.75,874.392L406.75,877.675"></path><path marker-end="url(#svg_flowchart-pointEnd)" style="fill:none;" class="edge-thickness-normal edge-pattern-solid flowchart-link LS-Processor LE-Parts" id="L-Processor-Parts-0" d="M406.75,937.975L406.75,942.142C406.75,946.309,406.75,954.642,430.601,964.68C454.451,974.719,502.152,986.462,526.003,992.334L549.854,998.206"></path><path marker-end="url(#svg_flowchart-pointEnd)" style="fill:none;" class="edge-thickness-normal edge-pattern-solid flowchart-link LS-Parts LE-Store" id="L-Parts-Store-0" d="M685,1008.849L760,1001.203C835,993.558,985,978.267,1060,961.871C1135,945.475,1135,927.975,1135,910.475C1135,892.975,1135,875.475,1135,859.559C1135,843.642,1135,829.309,1135,814.975C1135,800.642,1135,786.309,1135,770.392C1135,754.475,1135,736.975,1135,719.475C1135,701.975,1135,684.475,1135,666.809C1135,649.142,1135,631.309,1135,611.725C1135,592.142,1135,570.809,1135,539.892C1135,508.975,1135,468.475,1135,429.725C1135,390.975,1135,353.975,1120.644,327.339C1106.287,300.704,1077.574,284.432,1063.218,276.296L1048.861,268.16"></path><path marker-end="url(#svg_flowchart-pointEnd)" style="fill:none;" class="edge-thickness-normal edge-pattern-solid flowchart-link LS-Parts LE-Text" id="L-Parts-Text-0" d="M555,1021.783L475.667,1029.482C396.333,1037.18,237.667,1052.578,158.333,1063.56C79,1074.542,79,1081.109,79,1084.392L79,1087.675"></path><path marker-end="url(#svg_flowchart-pointEnd)" style="fill:none;" class="edge-thickness-normal edge-pattern-solid flowchart-link LS-Parts LE-Reasoning" id="L-Parts-Reasoning-0" d="M555,1025.631L509.833,1032.689C464.667,1039.746,374.333,1053.861,329.167,1064.201C284,1074.542,284,1081.109,284,1084.392L284,1087.675"></path><path marker-end="url(#svg_flowchart-pointEnd)" style="fill:none;" class="edge-thickness-normal edge-pattern-solid flowchart-link LS-Parts LE-Tool" id="L-Parts-Tool-0" d="M680.5,1042.975L689.667,1047.142C698.833,1051.309,717.167,1059.642,726.333,1067.092C735.5,1074.542,735.5,1081.109,735.5,1084.392L735.5,1087.675"></path><path marker-end="url(#svg_flowchart-pointEnd)" style="fill:none;" class="edge-thickness-normal edge-pattern-solid flowchart-link LS-Parts LE-Step" id="L-Parts-Step-0" d="M559.5,1042.975L550.333,1047.142C541.167,1051.309,522.833,1059.642,513.667,1067.259C504.5,1074.875,504.5,1081.775,504.5,1085.225L504.5,1088.675"></path><path marker-end="url(#svg_flowchart-pointEnd)" style="fill:none;" class="edge-thickness-normal edge-pattern-solid flowchart-link LS-Parts LE-Patch" id="L-Parts-Patch-0" d="M685,1026.573L725.417,1033.473C765.833,1040.374,846.667,1054.174,887.083,1064.358C927.5,1074.542,927.5,1081.109,927.5,1084.392L927.5,1087.675"></path><path marker-end="url(#svg_flowchart-pointEnd)" style="fill:none;" class="edge-thickness-normal edge-pattern-solid flowchart-link LS-Parts LE-CompactMark" id="L-Parts-CompactMark-0" d="M685,1022.637L753.583,1030.193C822.167,1037.75,959.333,1052.862,1027.917,1063.702C1096.5,1074.542,1096.5,1081.109,1096.5,1084.392L1096.5,1087.675"></path><path marker-end="url(#svg_flowchart-pointEnd)" style="fill:none;" class="edge-thickness-normal edge-pattern-solid flowchart-link LS-Store LE-ReadHistory" id="L-Store-ReadHistory-0" d="M846.25,255.014L770.667,265.341C695.083,275.668,543.917,296.321,468.333,325.148C392.75,353.975,392.75,390.975,392.75,429.725C392.75,468.475,392.75,508.975,393.856,534.279C394.961,559.583,397.172,569.69,398.278,574.744L399.383,579.798"></path><path marker-end="url(#svg_flowchart-pointEnd)" style="fill:none;" class="edge-thickness-normal edge-pattern-solid flowchart-link LS-ReadHistory LE-Convert" id="L-ReadHistory-Convert-0" d="M406.75,641.975L406.75,646.142C406.75,650.309,406.75,658.642,406.75,666.092C406.75,673.542,406.75,680.109,406.75,683.392L406.75,686.675"></path><path marker-end="url(#svg_flowchart-pointEnd)" style="fill:none;" class="edge-thickness-normal edge-pattern-solid flowchart-link LS-Convert LE-Model" id="L-Convert-Model-0" d="M406.75,746.975L406.75,751.142C406.75,755.309,406.75,763.642,406.75,771.092C406.75,778.542,406.75,785.109,406.75,788.392L406.75,791.675"></path><path marker-end="url(#svg_flowchart-pointEnd)" style="fill:none;" class="edge-thickness-normal edge-pattern-solid flowchart-link LS-Step LE-Snapshot" id="L-Step-Snapshot-0" d="M504.5,1148.975L504.5,1153.309C504.5,1157.642,504.5,1166.309,504.5,1174.092C504.5,1181.875,504.5,1188.775,504.5,1192.225L504.5,1195.675"></path><path marker-end="url(#svg_flowchart-pointEnd)" style="fill:none;" class="edge-thickness-normal edge-pattern-solid flowchart-link LS-Snapshot LE-Diff" id="L-Snapshot-Diff-0" d="M504.5,1255.975L504.5,1260.309C504.5,1264.642,504.5,1273.309,504.5,1280.925C504.5,1288.542,504.5,1295.109,504.5,1298.392L504.5,1301.675"></path><path marker-end="url(#svg_flowchart-pointEnd)" style="fill:none;" class="edge-thickness-normal edge-pattern-solid flowchart-link LS-Diff LE-Summary" id="L-Diff-Summary-0" d="M504.5,1361.975L504.5,1366.142C504.5,1370.309,504.5,1378.642,555.632,1392.548C606.765,1406.453,709.029,1425.931,760.161,1435.67L811.294,1445.41"></path><path marker-end="url(#svg_flowchart-pointEnd)" style="fill:none;" class="edge-thickness-normal edge-pattern-solid flowchart-link LS-Summary LE-Store" id="L-Summary-Store-0" d="M973.5,1444.918L1019.625,1435.261C1065.75,1425.603,1158,1406.289,1204.125,1387.882C1250.25,1369.475,1250.25,1351.975,1250.25,1334.475C1250.25,1316.975,1250.25,1299.475,1250.25,1281.809C1250.25,1264.142,1250.25,1246.309,1250.25,1228.475C1250.25,1210.642,1250.25,1192.809,1250.25,1174.975C1250.25,1157.142,1250.25,1139.309,1250.25,1121.475C1250.25,1103.642,1250.25,1085.809,1250.25,1068.142C1250.25,1050.475,1250.25,1032.975,1250.25,1015.475C1250.25,997.975,1250.25,980.475,1250.25,962.975C1250.25,945.475,1250.25,927.975,1250.25,910.475C1250.25,892.975,1250.25,875.475,1250.25,859.559C1250.25,843.642,1250.25,829.309,1250.25,814.975C1250.25,800.642,1250.25,786.309,1250.25,770.392C1250.25,754.475,1250.25,736.975,1250.25,719.475C1250.25,701.975,1250.25,684.475,1250.25,666.809C1250.25,649.142,1250.25,631.309,1250.25,611.725C1250.25,592.142,1250.25,570.809,1250.25,539.892C1250.25,508.975,1250.25,468.475,1250.25,429.725C1250.25,390.975,1250.25,353.975,1216.774,327.19C1183.298,300.405,1116.347,283.834,1082.871,275.549L1049.395,267.263"></path><path marker-end="url(#svg_flowchart-pointEnd)" style="fill:none;" class="edge-thickness-normal edge-pattern-solid flowchart-link LS-Store LE-Overflow" id="L-Store-Overflow-0" d="M937.057,291.923L936.381,296.098C935.705,300.274,934.352,308.624,933.742,316.167C933.132,323.709,933.264,330.443,933.33,333.809L933.396,337.176"></path><path marker-end="url(#svg_flowchart-pointEnd)" style="fill:none;" class="edge-thickness-normal edge-pattern-solid flowchart-link LS-Overflow LE-Compaction" id="L-Overflow-Compaction-0" d="M944.597,503.378L945.664,511.061C946.731,518.744,948.866,534.11,949.933,546.992C951,559.875,951,570.275,951,575.475L951,580.675"></path><path marker-end="url(#svg_flowchart-pointEnd)" style="fill:none;" class="edge-thickness-normal edge-pattern-solid flowchart-link LS-Compaction LE-CompactSummary" id="L-Compaction-CompactSummary-0" d="M951,640.975L951,645.309C951,649.642,951,658.309,956.959,667.813C962.918,677.317,974.836,687.659,980.795,692.831L986.754,698.002"></path><path marker-end="url(#svg_flowchart-pointEnd)" style="fill:none;" class="edge-thickness-normal edge-pattern-solid flowchart-link LS-CompactSummary LE-Store" id="L-CompactSummary-Store-0" d="M1032.157,701.475L1038.756,695.725C1045.355,689.975,1058.552,678.475,1065.151,663.809C1071.75,649.142,1071.75,631.309,1071.75,611.725C1071.75,592.142,1071.75,570.809,1071.75,539.892C1071.75,508.975,1071.75,468.475,1071.75,429.725C1071.75,390.975,1071.75,353.975,1065.467,330.621C1059.183,307.266,1046.617,297.557,1040.333,292.703L1034.05,287.849"></path><path marker-end="url(#svg_flowchart-pointEnd)" style="fill:none;" class="edge-thickness-normal edge-pattern-solid flowchart-link LS-Overflow LE-ReadHistory" id="L-Overflow-ReadHistory-0" d="M894.781,475.756L884.567,488.042C874.354,500.329,853.927,524.902,784.045,546.137C714.164,567.372,594.828,585.269,535.159,594.218L475.491,603.166"></path><path marker-end="url(#svg_flowchart-pointEnd)" style="fill:none;" class="edge-thickness-normal edge-pattern-solid flowchart-link LS-Tool LE-Truncate" id="L-Tool-Truncate-0" d="M735.5,1149.975L735.5,1154.142C735.5,1158.309,735.5,1166.642,763.681,1177.371C791.863,1188.1,848.225,1201.225,876.407,1207.787L904.588,1214.349"></path><path marker-end="url(#svg_flowchart-pointEnd)" style="fill:none;" class="edge-thickness-normal edge-pattern-solid flowchart-link LS-Truncate LE-Store" id="L-Truncate-Store-0" d="M1020.75,1215.551L1049.792,1208.789C1078.833,1202.026,1136.917,1188.501,1165.958,1172.821C1195,1157.142,1195,1139.309,1195,1121.475C1195,1103.642,1195,1085.809,1195,1068.142C1195,1050.475,1195,1032.975,1195,1015.475C1195,997.975,1195,980.475,1195,962.975C1195,945.475,1195,927.975,1195,910.475C1195,892.975,1195,875.475,1195,859.559C1195,843.642,1195,829.309,1195,814.975C1195,800.642,1195,786.309,1195,770.392C1195,754.475,1195,736.975,1195,719.475C1195,701.975,1195,684.475,1195,666.809C1195,649.142,1195,631.309,1195,611.725C1195,592.142,1195,570.809,1195,539.892C1195,508.975,1195,468.475,1195,429.725C1195,390.975,1195,353.975,1170.721,328.137C1146.441,302.298,1097.882,287.621,1073.603,280.283L1049.323,272.944"></path></g><g class="edgeLabels"><g class="edgeLabel"><g transform="translate(0, 0)" class="label"><foreignObject height="0" width="0"><div style="display: inline-block; white-space: nowrap;" xmlns="http://www.w3.org/1999/xhtml"><span class="edgeLabel"></span></div></foreignObject></g></g><g class="edgeLabel"><g transform="translate(0, 0)" class="label"><foreignObject height="0" width="0"><div style="display: inline-block; white-space: nowrap;" xmlns="http://www.w3.org/1999/xhtml"><span class="edgeLabel"></span></div></foreignObject></g></g><g class="edgeLabel"><g transform="translate(0, 0)" class="label"><foreignObject height="0" width="0"><div style="display: inline-block; white-space: nowrap;" xmlns="http://www.w3.org/1999/xhtml"><span class="edgeLabel"></span></div></foreignObject></g></g><g class="edgeLabel"><g transform="translate(0, 0)" class="label"><foreignObject height="0" width="0"><div style="display: inline-block; white-space: nowrap;" xmlns="http://www.w3.org/1999/xhtml"><span class="edgeLabel"></span></div></foreignObject></g></g><g class="edgeLabel"><g transform="translate(0, 0)" class="label"><foreignObject height="0" width="0"><div style="display: inline-block; white-space: nowrap;" xmlns="http://www.w3.org/1999/xhtml"><span class="edgeLabel"></span></div></foreignObject></g></g><g class="edgeLabel"><g transform="translate(0, 0)" class="label"><foreignObject height="0" width="0"><div style="display: inline-block; white-space: nowrap;" xmlns="http://www.w3.org/1999/xhtml"><span class="edgeLabel"></span></div></foreignObject></g></g><g class="edgeLabel"><g transform="translate(0, 0)" class="label"><foreignObject height="0" width="0"><div style="display: inline-block; white-space: nowrap;" xmlns="http://www.w3.org/1999/xhtml"><span class="edgeLabel"></span></div></foreignObject></g></g><g class="edgeLabel"><g transform="translate(0, 0)" class="label"><foreignObject height="0" width="0"><div style="display: inline-block; white-space: nowrap;" xmlns="http://www.w3.org/1999/xhtml"><span class="edgeLabel"></span></div></foreignObject></g></g><g class="edgeLabel"><g transform="translate(0, 0)" class="label"><foreignObject height="0" width="0"><div style="display: inline-block; white-space: nowrap;" xmlns="http://www.w3.org/1999/xhtml"><span class="edgeLabel"></span></div></foreignObject></g></g><g class="edgeLabel"><g transform="translate(0, 0)" class="label"><foreignObject height="0" width="0"><div style="display: inline-block; white-space: nowrap;" xmlns="http://www.w3.org/1999/xhtml"><span class="edgeLabel"></span></div></foreignObject></g></g><g class="edgeLabel"><g transform="translate(0, 0)" class="label"><foreignObject height="0" width="0"><div style="display: inline-block; white-space: nowrap;" xmlns="http://www.w3.org/1999/xhtml"><span class="edgeLabel"></span></div></foreignObject></g></g><g class="edgeLabel"><g transform="translate(0, 0)" class="label"><foreignObject height="0" width="0"><div style="display: inline-block; white-space: nowrap;" xmlns="http://www.w3.org/1999/xhtml"><span class="edgeLabel"></span></div></foreignObject></g></g><g class="edgeLabel"><g transform="translate(0, 0)" class="label"><foreignObject height="0" width="0"><div style="display: inline-block; white-space: nowrap;" xmlns="http://www.w3.org/1999/xhtml"><span class="edgeLabel"></span></div></foreignObject></g></g><g class="edgeLabel"><g transform="translate(0, 0)" class="label"><foreignObject height="0" width="0"><div style="display: inline-block; white-space: nowrap;" xmlns="http://www.w3.org/1999/xhtml"><span class="edgeLabel"></span></div></foreignObject></g></g><g class="edgeLabel"><g transform="translate(0, 0)" class="label"><foreignObject height="0" width="0"><div style="display: inline-block; white-space: nowrap;" xmlns="http://www.w3.org/1999/xhtml"><span class="edgeLabel"></span></div></foreignObject></g></g><g class="edgeLabel"><g transform="translate(0, 0)" class="label"><foreignObject height="0" width="0"><div style="display: inline-block; white-space: nowrap;" xmlns="http://www.w3.org/1999/xhtml"><span class="edgeLabel"></span></div></foreignObject></g></g><g class="edgeLabel"><g transform="translate(0, 0)" class="label"><foreignObject height="0" width="0"><div style="display: inline-block; white-space: nowrap;" xmlns="http://www.w3.org/1999/xhtml"><span class="edgeLabel"></span></div></foreignObject></g></g><g class="edgeLabel"><g transform="translate(0, 0)" class="label"><foreignObject height="0" width="0"><div style="display: inline-block; white-space: nowrap;" xmlns="http://www.w3.org/1999/xhtml"><span class="edgeLabel"></span></div></foreignObject></g></g><g class="edgeLabel"><g transform="translate(0, 0)" class="label"><foreignObject height="0" width="0"><div style="display: inline-block; white-space: nowrap;" xmlns="http://www.w3.org/1999/xhtml"><span class="edgeLabel"></span></div></foreignObject></g></g><g transform="translate(951, 549.4752426147461)" class="edgeLabel"><g transform="translate(-8, -10.5)" class="label"><foreignObject height="21" width="16"><div style="display: inline-block; white-space: nowrap;" xmlns="http://www.w3.org/1999/xhtml"><span class="edgeLabel">是</span></div></foreignObject></g></g><g class="edgeLabel"><g transform="translate(0, 0)" class="label"><foreignObject height="0" width="0"><div style="display: inline-block; white-space: nowrap;" xmlns="http://www.w3.org/1999/xhtml"><span class="edgeLabel"></span></div></foreignObject></g></g><g class="edgeLabel"><g transform="translate(0, 0)" class="label"><foreignObject height="0" width="0"><div style="display: inline-block; white-space: nowrap;" xmlns="http://www.w3.org/1999/xhtml"><span class="edgeLabel"></span></div></foreignObject></g></g><g transform="translate(833.5, 549.4752426147461)" class="edgeLabel"><g transform="translate(-8, -10.5)" class="label"><foreignObject height="21" width="16"><div style="display: inline-block; white-space: nowrap;" xmlns="http://www.w3.org/1999/xhtml"><span class="edgeLabel">否</span></div></foreignObject></g></g><g class="edgeLabel"><g transform="translate(0, 0)" class="label"><foreignObject height="0" width="0"><div style="display: inline-block; white-space: nowrap;" xmlns="http://www.w3.org/1999/xhtml"><span class="edgeLabel"></span></div></foreignObject></g></g><g class="edgeLabel"><g transform="translate(0, 0)" class="label"><foreignObject height="0" width="0"><div style="display: inline-block; white-space: nowrap;" xmlns="http://www.w3.org/1999/xhtml"><span class="edgeLabel"></span></div></foreignObject></g></g></g><g class="nodes"><g transform="translate(945.25, 18)" data-id="User" data-node="true" id="flowchart-User-0" class="node default default flowchart-label"><rect height="36" width="79" y="-18" x="-39.5" ry="0" rx="0" style="" class="basic label-container"></rect><g transform="translate(-32, -10.5)" style="" class="label"><rect></rect><foreignObject height="21" width="64"><div style="display: inline-block; white-space: nowrap;" xmlns="http://www.w3.org/1999/xhtml"><span class="nodeLabel">用户输入</span></div></foreignObject></g></g><g transform="translate(945.25, 113.5)" data-id="Create" data-node="true" id="flowchart-Create-1" class="node default default flowchart-label"><rect height="55" width="298" y="-27.5" x="-149" ry="0" rx="0" style="" class="basic label-container"></rect><g transform="translate(-141.5, -20)" style="" class="label"><rect></rect><foreignObject height="40" width="283"><div style="display: inline-block; white-space: nowrap;" xmlns="http://www.w3.org/1999/xhtml"><span class="nodeLabel">创建用户消息<br/>SessionPrompt.createUserMessage</span></div></foreignObject></g></g><g transform="translate(945.25, 241.48762130737305)" data-id="Store" data-node="true" id="flowchart-Store-3" class="node default default flowchart-label"><path transform="translate(-99,-50.487616099071204)" d="M 0,15.325077399380804 a 99,15.325077399380804 0,0,0 198 0 a 99,15.325077399380804 0,0,0 -198 0 l 0,70.3250773993808 a 99,15.325077399380804 0,0,0 198 0 l 0,-70.3250773993808" style=""></path><g transform="translate(-91.5, -20)" style="" class="label"><rect></rect><foreignObject height="40" width="183"><div style="display: inline-block; white-space: nowrap;" xmlns="http://www.w3.org/1999/xhtml"><span class="nodeLabel">会话消息存储<br/>Session Message Store</span></div></foreignObject></g></g><g transform="translate(406.75, 814.9752426147461)" data-id="Model" data-node="true" id="flowchart-Model-4" class="node default default flowchart-label"><rect height="36" width="142" y="-18" x="-71" ry="0" rx="0" style="" class="basic label-container"></rect><g transform="translate(-63.5, -10.5)" style="" class="label"><rect></rect><foreignObject height="21" width="127"><div style="display: inline-block; white-space: nowrap;" xmlns="http://www.w3.org/1999/xhtml"><span class="nodeLabel">模型流 / 工具执行</span></div></foreignObject></g></g><g transform="translate(406.75, 910.4752426147461)" data-id="Processor" data-node="true" id="flowchart-Processor-5" class="node default default flowchart-label"><rect height="55" width="154" y="-27.5" x="-77" ry="0" rx="0" style="" class="basic label-container"></rect><g transform="translate(-69.5, -20)" style="" class="label"><rect></rect><foreignObject height="40" width="139"><div style="display: inline-block; white-space: nowrap;" xmlns="http://www.w3.org/1999/xhtml"><span class="nodeLabel">会话处理器<br/>SessionProcessor</span></div></foreignObject></g></g><g transform="translate(620, 1015.4752426147461)" data-id="Parts" data-node="true" id="flowchart-Parts-7" class="node default default flowchart-label"><rect height="55" width="130" y="-27.5" x="-65" ry="0" rx="0" style="" class="basic label-container"></rect><g transform="translate(-57.5, -20)" style="" class="label"><rect></rect><foreignObject height="40" width="115"><div style="display: inline-block; white-space: nowrap;" xmlns="http://www.w3.org/1999/xhtml"><span class="nodeLabel">消息片段<br/>Message Parts</span></div></foreignObject></g></g><g transform="translate(79, 1121.475242614746)" data-id="Text" data-node="true" id="flowchart-Text-11" class="node default default flowchart-label"><rect height="57" width="158" y="-28.5" x="-79" ry="0" rx="0" style="" class="basic label-container"></rect><g transform="translate(-71.5, -21)" style="" class="label"><rect></rect><foreignObject height="42" width="143"><div style="display: inline-block; white-space: nowrap;" xmlns="http://www.w3.org/1999/xhtml"><span class="nodeLabel">文本片段<br/>用户文本 / 助手回复</span></div></foreignObject></g></g><g transform="translate(284, 1121.475242614746)" data-id="Reasoning" data-node="true" id="flowchart-Reasoning-13" class="node default default flowchart-label"><rect height="57" width="152" y="-28.5" x="-76" ry="0" rx="0" style="" class="basic label-container"></rect><g transform="translate(-68.5, -21)" style="" class="label"><rect></rect><foreignObject height="42" width="137"><div style="display: inline-block; white-space: nowrap;" xmlns="http://www.w3.org/1999/xhtml"><span class="nodeLabel">推理片段<br/>模型 reasoning 流</span></div></foreignObject></g></g><g transform="translate(735.5, 1121.475242614746)" data-id="Tool" data-node="true" id="flowchart-Tool-15" class="node default default flowchart-label"><rect height="57" width="173" y="-28.5" x="-86.5" ry="0" rx="0" style="" class="basic label-container"></rect><g transform="translate(-79, -21)" style="" class="label"><rect></rect><foreignObject height="42" width="158"><div style="display: inline-block; white-space: nowrap;" xmlns="http://www.w3.org/1999/xhtml"><span class="nodeLabel">工具片段<br/>工具输入 / 输出 / 错误</span></div></foreignObject></g></g><g transform="translate(504.5, 1121.475242614746)" data-id="Step" data-node="true" id="flowchart-Step-17" class="node default default flowchart-label"><rect height="55" width="189" y="-27.5" x="-94.5" ry="0" rx="0" style="" class="basic label-container"></rect><g transform="translate(-87, -20)" style="" class="label"><rect></rect><foreignObject height="40" width="174"><div style="display: inline-block; white-space: nowrap;" xmlns="http://www.w3.org/1999/xhtml"><span class="nodeLabel">步骤片段<br/>step-start / step-finish</span></div></foreignObject></g></g><g transform="translate(927.5, 1121.475242614746)" data-id="Patch" data-node="true" id="flowchart-Patch-19" class="node default default flowchart-label"><rect height="57" width="111" y="-28.5" x="-55.5" ry="0" rx="0" style="" class="basic label-container"></rect><g transform="translate(-48, -21)" style="" class="label"><rect></rect><foreignObject height="42" width="96"><div style="display: inline-block; white-space: nowrap;" xmlns="http://www.w3.org/1999/xhtml"><span class="nodeLabel">补丁片段<br/>文件变更摘要</span></div></foreignObject></g></g><g transform="translate(1096.5, 1121.475242614746)" data-id="CompactMark" data-node="true" id="flowchart-CompactMark-21" class="node default default flowchart-label"><rect height="57" width="127" y="-28.5" x="-63.5" ry="0" rx="0" style="" class="basic label-container"></rect><g transform="translate(-56, -21)" style="" class="label"><rect></rect><foreignObject height="42" width="112"><div style="display: inline-block; white-space: nowrap;" xmlns="http://www.w3.org/1999/xhtml"><span class="nodeLabel">压缩片段<br/>上下文压缩标记</span></div></foreignObject></g></g><g transform="translate(406.75, 613.4752426147461)" data-id="ReadHistory" data-node="true" id="flowchart-ReadHistory-23" class="node default default flowchart-label"><rect height="57" width="127" y="-28.5" x="-63.5" ry="0" rx="0" style="" class="basic label-container"></rect><g transform="translate(-56, -21)" style="" class="label"><rect></rect><foreignObject height="42" width="112"><div style="display: inline-block; white-space: nowrap;" xmlns="http://www.w3.org/1999/xhtml"><span class="nodeLabel">读取有效历史<br/>过滤已压缩内容</span></div></foreignObject></g></g><g transform="translate(406.75, 719.4752426147461)" data-id="Convert" data-node="true" id="flowchart-Convert-25" class="node default default flowchart-label"><rect height="55" width="203" y="-27.5" x="-101.5" ry="0" rx="0" style="" class="basic label-container"></rect><g transform="translate(-94, -20)" style="" class="label"><rect></rect><foreignObject height="40" width="188"><div style="display: inline-block; white-space: nowrap;" xmlns="http://www.w3.org/1999/xhtml"><span class="nodeLabel">转换为模型消息<br/>toModelMessagesEffect</span></div></foreignObject></g></g><g transform="translate(504.5, 1228.475242614746)" data-id="Snapshot" data-node="true" id="flowchart-Snapshot-29" class="node default default flowchart-label"><rect height="55" width="89" y="-27.5" x="-44.5" ry="0" rx="0" style="" class="basic label-container"></rect><g transform="translate(-37, -20)" style="" class="label"><rect></rect><foreignObject height="40" width="74"><div style="display: inline-block; white-space: nowrap;" xmlns="http://www.w3.org/1999/xhtml"><span class="nodeLabel">代码快照<br/>Snapshot</span></div></foreignObject></g></g><g transform="translate(504.5, 1334.475242614746)" data-id="Diff" data-node="true" id="flowchart-Diff-31" class="node default default flowchart-label"><rect height="55" width="254" y="-27.5" x="-127" ry="0" rx="0" style="" class="basic label-container"></rect><g transform="translate(-119.5, -20)" style="" class="label"><rect></rect><foreignObject height="40" width="239"><div style="display: inline-block; white-space: nowrap;" xmlns="http://www.w3.org/1999/xhtml"><span class="nodeLabel">计算文件差异<br/>SessionSummary.computeDiff</span></div></foreignObject></g></g><g transform="translate(895, 1461.3529052734375)" data-id="Summary" data-node="true" id="flowchart-Summary-33" class="node default default flowchart-label"><path transform="translate(-78.5,-49.37765957446809)" d="M 0,13.918439716312056 a 78.5,13.918439716312056 0,0,0 157 0 a 78.5,13.918439716312056 0,0,0 -157 0 l 0,70.91843971631207 a 78.5,13.918439716312056 0,0,0 157 0 l 0,-70.91843971631207" style=""></path><g transform="translate(-71, -21)" style="" class="label"><rect></rect><foreignObject height="42" width="142"><div style="display: inline-block; white-space: nowrap;" xmlns="http://www.w3.org/1999/xhtml"><span class="nodeLabel">会话摘要<br/>文件数 / 新增 / 删除</span></div></foreignObject></g></g><g transform="translate(933, 427.9752426147461)" data-id="Overflow" data-node="true" id="flowchart-Overflow-37" class="node default default flowchart-label"><polygon style="" transform="translate(-86,86)" class="label-container" points="86,0 172,-86 86,-172 0,-86"></polygon><g transform="translate(-60.5, -10.5)" style="" class="label"><rect></rect><foreignObject height="21" width="121"><div style="display: inline-block; white-space: nowrap;" xmlns="http://www.w3.org/1999/xhtml"><span class="nodeLabel">上下文是否过长?</span></div></foreignObject></g></g><g transform="translate(951, 613.4752426147461)" data-id="Compaction" data-node="true" id="flowchart-Compaction-39" class="node default default flowchart-label"><rect height="55" width="171" y="-27.5" x="-85.5" ry="0" rx="0" style="" class="basic label-container"></rect><g transform="translate(-78, -20)" style="" class="label"><rect></rect><foreignObject height="40" width="156"><div style="display: inline-block; white-space: nowrap;" xmlns="http://www.w3.org/1999/xhtml"><span class="nodeLabel">上下文压缩<br/>SessionCompaction</span></div></foreignObject></g></g><g transform="translate(1011.5, 719.4752426147461)" data-id="CompactSummary" data-node="true" id="flowchart-CompactSummary-41" class="node default default flowchart-label"><rect height="36" width="143" y="-18" x="-71.5" ry="0" rx="0" style="" class="basic label-container"></rect><g transform="translate(-64, -10.5)" style="" class="label"><rect></rect><foreignObject height="21" width="128"><div style="display: inline-block; white-space: nowrap;" xmlns="http://www.w3.org/1999/xhtml"><span class="nodeLabel">压缩后的任务摘要</span></div></foreignObject></g></g><g transform="translate(965.25, 1228.475242614746)" data-id="Truncate" data-node="true" id="flowchart-Truncate-47" class="node default default flowchart-label"><rect height="57" width="111" y="-28.5" x="-55.5" ry="0" rx="0" style="" class="basic label-container"></rect><g transform="translate(-48, -21)" style="" class="label"><rect></rect><foreignObject height="42" width="96"><div style="display: inline-block; white-space: nowrap;" xmlns="http://www.w3.org/1999/xhtml"><span class="nodeLabel">工具输出截断<br/>避免结果过长</span></div></foreignObject></g></g></g></g></g></svg>